<?xml version="1.0" encoding="UTF-8" standalone="no"?>
<!-- Created with Inkscape (http://www.inkscape.org/) -->

<svg
   width="136.92497mm"
   height="18.28829mm"
   viewBox="0 0 136.92497 18.28829"
   version="1.1"
   id="svg1"
   inkscape:export-filename="kamagio.svg"
   inkscape:export-xdpi="300"
   inkscape:export-ydpi="300"
   inkscape:version="1.3.2 (091e20e, 2023-11-25, custom)"
   sodipodi:docname="drawing.svg"
   xmlns:inkscape="http://www.inkscape.org/namespaces/inkscape"
   xmlns:sodipodi="http://sodipodi.sourceforge.net/DTD/sodipodi-0.dtd"
   xmlns="http://www.w3.org/2000/svg"
   xmlns:svg="http://www.w3.org/2000/svg">
  <sodipodi:namedview
     id="namedview1"
     pagecolor="#ffffff"
     bordercolor="#666666"
     borderopacity="1.0"
     inkscape:showpageshadow="2"
     inkscape:pageopacity="0.0"
     inkscape:pagecheckerboard="0"
     inkscape:deskcolor="#d1d1d1"
     inkscape:document-units="mm"
     inkscape:zoom="2.8284271"
     inkscape:cx="488.78756"
     inkscape:cy="397.57079"
     inkscape:window-width="3840"
     inkscape:window-height="2054"
     inkscape:window-x="8629"
     inkscape:window-y="-11"
     inkscape:window-maximized="1"
     inkscape:current-layer="layer1" />
  <defs
     id="defs1" />
  <g
     inkscape:label="Layer 1"
     inkscape:groupmode="layer"
     id="layer1"
     transform="translate(-46.073762,-96.487493)">
    <g
       id="g1"
       transform="translate(-2.6192414,-15.154182)">
      <path
         id="text1"
         style="font-size:25.4px;line-height:1.25;font-family:Montserrat;-inkscape-font-specification:'Montserrat, @wght=600';font-variation-settings:'wght' 600;letter-spacing:0px;word-spacing:0px;stroke-width:0.265;stroke-dasharray:none"
         d="m 145.1481,111.64167 c -1.38853,0 -2.66703,0.22855 -3.83543,0.68574 -1.16831,0.44027 -2.19318,1.07558 -3.07371,1.90532 -0.8636,0.81279 -1.53247,1.77783 -2.0066,2.89543 -0.47413,1.11759 -0.71106,2.33686 -0.71106,3.65765 0,1.32079 0.23693,2.54006 0.71106,3.65766 0.47413,1.1176 1.143,2.09102 2.0066,2.92075 0.8636,0.8128 1.87117,1.44811 3.02255,1.90531 1.1684,0.44027 2.4469,0.66043 3.83543,0.66043 1.25307,0 2.48962,-0.18661 3.70882,-0.55914 1.23613,-0.38947 2.31963,-0.95664 3.25096,-1.70171 v -7.08638 h -3.12436 v 5.52472 c -0.36383,0.21131 -0.73549,0.38794 -1.11724,0.52038 -0.8128,0.27093 -1.65988,0.40618 -2.54041,0.40618 -0.94827,0 -1.81161,-0.15202 -2.59054,-0.45682 -0.77893,-0.3048 -1.45619,-0.73673 -2.03192,-1.29553 -0.57573,-0.57573 -1.02444,-1.2446 -1.34617,-2.00659 -0.3048,-0.762 -0.45734,-1.5918 -0.45734,-2.48926 0,-0.91439 0.15254,-1.75258 0.45734,-2.51457 0.32173,-0.762 0.77044,-1.42248 1.34617,-1.98128 0.57573,-0.55879 1.26137,-0.99072 2.05724,-1.29552 0.79587,-0.3048 1.65981,-0.45682 2.59105,-0.45682 0.9652,0 1.84532,0.16931 2.64119,0.50798 0.8128,0.32173 1.56657,0.82968 2.26084,1.52393 l 2.08256,-2.03191 c -0.82973,-0.94826 -1.854,-1.66798 -3.0732,-2.15905 -1.20227,-0.49105 -2.55676,-0.7369 -4.06383,-0.7369 z m 30.89372,0 c -1.3716,0 -2.64119,0.22855 -3.80959,0.68574 -1.1684,0.4572 -2.18479,1.10091 -3.04839,1.93064 -0.8636,0.81279 -1.53255,1.77784 -2.00659,2.89543 -0.47413,1.10065 -0.71107,2.31154 -0.71107,3.63233 0,1.32079 0.23694,2.54006 0.71107,3.65766 0.47404,1.10067 1.14299,2.0657 2.00659,2.89543 0.8636,0.8128 1.87999,1.44811 3.04839,1.90531 1.1684,0.4572 2.4469,0.68575 3.83543,0.68575 1.3716,0 2.63279,-0.22855 3.78426,-0.68575 1.1684,-0.4572 2.18428,-1.09251 3.04788,-1.90531 0.8636,-0.8128 1.53247,-1.77783 2.0066,-2.89543 0.47413,-1.1176 0.71158,-2.33687 0.71158,-3.65766 0,-1.32079 -0.23745,-2.53168 -0.71158,-3.63233 -0.47413,-1.11759 -1.143,-2.08264 -2.0066,-2.89543 -0.8636,-0.82973 -1.87948,-1.47344 -3.04788,-1.93064 -1.15147,-0.45719 -2.42157,-0.68574 -3.8101,-0.68574 z m -127.348816,0.25425 v 17.77979 h 3.302124 v -4.55476 l 2.831869,-2.89801 6.261116,7.45277 h 3.860747 l -7.934916,-9.83609 7.478096,-7.9437 h -3.708817 l -8.788095,9.12399 v -9.12399 z m 26.428361,0 -8.001062,17.77979 h 3.40341 l 6.198588,-14.48697 3.342432,7.78144 H 75.97351 l -1.104842,2.59054 h 6.308659 l 1.767334,4.11499 h 3.454052 L 78.37233,111.89592 Z m 15.154631,0 v 17.77979 h 3.149679 v -11.62668 l 5.84202,9.59476 h 1.473295 l 5.84409,-9.74772 0.0232,11.77964 h 3.12436 l -0.0253,-17.77979 h -2.71818 l -6.9396,11.78171 -7.055384,-11.78171 z m 31.360364,0 -8.00107,17.77979 h 3.40341 l 6.19911,-14.48697 3.34191,7.78144 h -4.08554 l -1.10484,2.59054 h 6.30298 l 1.76733,4.11499 h 3.45405 l -8.02638,-17.77979 z m 36.38072,0 v 17.77979 h 3.30161 v -17.77979 z m 18.02474,2.6417 c 0.89747,0 1.72725,0.15202 2.48925,0.45682 0.762,0.3048 1.42248,0.74511 1.98128,1.32085 0.5588,0.55879 0.99073,1.21928 1.29553,1.98127 0.32173,0.74506 0.48265,1.57486 0.48265,2.48925 0,0.91439 -0.16092,1.75258 -0.48265,2.51458 -0.3048,0.74507 -0.73673,1.40554 -1.29553,1.98127 -0.5588,0.5588 -1.21928,0.99073 -1.98128,1.29553 -0.762,0.3048 -1.59178,0.45682 -2.48925,0.45682 -0.89747,0 -1.72674,-0.15202 -2.48874,-0.45682 -0.762,-0.3048 -1.42247,-0.73673 -1.98127,-1.29553 -0.5588,-0.57573 -0.99912,-1.2446 -1.32085,-2.00659 -0.3048,-0.762 -0.45734,-1.5918 -0.45734,-2.48926 0,-0.91439 0.15254,-1.74419 0.45734,-2.48925 0.32173,-0.76199 0.76205,-1.42248 1.32085,-1.98127 0.57573,-0.57574 1.2362,-1.01605 1.98127,-1.32085 0.762,-0.3048 1.59127,-0.45682 2.48874,-0.45682 z"
         sodipodi:nodetypes="sccsssccsccccccssccscsssccccsssccsccsscssscccsccccccccccccccccccccccccccccccccccccccccccccccccccccccccssccsccsssccscscs" />
      <path
         style="font-size:10.5833px;line-height:1.25;font-family:Montserrat;-inkscape-font-specification:'Montserrat, @wght=600';font-variation-settings:'wght' 600;letter-spacing:0px;word-spacing:0px;fill:#8aaf6f;fill-opacity:0.752577;stroke-width:0.265;stroke-dasharray:none"
         d="m 176.02529,124.75441 c -0.57855,0 -1.11125,-0.0953 -1.59808,-0.28575 -0.48683,-0.1905 -0.91017,-0.45508 -1.27,-0.79375 -0.35983,-0.34572 -0.63852,-0.74788 -0.83608,-1.20649 -0.19755,-0.46567 -0.29633,-0.97367 -0.29633,-1.524 0,-0.55033 0.0988,-1.0548 0.29633,-1.51341 0.19756,-0.46567 0.47625,-0.86783 0.83608,-1.2065 0.35983,-0.34572 0.78317,-0.61383 1.27,-0.80433 0.48683,-0.1905 1.016,-0.28575 1.5875,-0.28575 0.57855,0 1.10772,0.0953 1.58749,0.28575 0.48683,0.1905 0.91017,0.45861 1.27,0.80433 0.35983,0.33867 0.63852,0.74083 0.83608,1.2065 0.19755,0.45861 0.29633,0.96308 0.29633,1.51341 0,0.55033 -0.0988,1.05833 -0.29633,1.524 -0.19756,0.46566 -0.47625,0.86783 -0.83608,1.20649 -0.35983,0.33867 -0.78317,0.60325 -1.27,0.79375 -0.47977,0.1905 -1.00541,0.28575 -1.57691,0.28575 z"
         id="text2"
         aria-label="O"
         sodipodi:nodetypes="ssccsccsscccssscs" />
    </g>
  </g>
</svg>
