<?xml version="1.0" encoding="UTF-8" standalone="no"?>
<!-- Created with Inkscape (http://www.inkscape.org/) -->

<svg
   width="136.92497mm"
   height="18.28829mm"
   viewBox="0 0 136.92497 18.28829"
   version="1.1"
   id="svg1"
   xmlns="http://www.w3.org/2000/svg"
   xmlns:svg="http://www.w3.org/2000/svg">
  <defs
     id="defs1" />
  <g
     id="layer1"
     transform="translate(-45.231862,-88.349126)">
    <path
       id="text1"
       style="font-size:25.4px;line-height:1.25;font-family:Montserrat;-inkscape-font-specification:'Montserrat, @wght=600';font-variation-settings:'wght' 600;letter-spacing:0px;word-spacing:0px;stroke-width:0.264583"
       d="m 141.68696,88.349129 c -1.38853,0 -2.66703,0.228555 -3.83543,0.685746 -1.16831,0.440267 -2.19318,1.075578 -3.07371,1.905311 -0.8636,0.812791 -1.53247,1.777839 -2.0066,2.89543 -0.47413,1.117591 -0.71106,2.336867 -0.71106,3.657658 0,1.320791 0.23693,2.540056 0.71106,3.657656 0.47413,1.1176 1.143,2.09102 2.0066,2.92075 0.8636,0.8128 1.87117,1.44811 3.02255,1.90531 1.1684,0.44027 2.4469,0.66043 3.83543,0.66043 1.25307,0 2.48962,-0.18661 3.70882,-0.55914 1.23613,-0.38947 2.31963,-0.95664 3.25096,-1.70171 v -7.086384 h -3.12436 v 5.524724 c -0.36383,0.21131 -0.73549,0.38794 -1.11724,0.52038 -0.8128,0.27093 -1.65988,0.40618 -2.54041,0.40618 -0.94827,0 -1.81161,-0.15202 -2.59054,-0.45682 -0.77893,-0.3048 -1.45619,-0.73673 -2.03192,-1.29553 -0.57573,-0.57573 -1.02444,-1.2446 -1.34617,-2.006592 -0.3048,-0.762 -0.45734,-1.591796 -0.45734,-2.489254 0,-0.914391 0.15254,-1.752584 0.45734,-2.514575 0.32173,-0.762 0.77044,-1.422475 1.34617,-1.981275 0.57573,-0.558791 1.26137,-0.990728 2.05724,-1.295528 0.79587,-0.3048 1.65981,-0.45682 2.59105,-0.45682 0.9652,0 1.84532,0.169313 2.64119,0.50798 0.8128,0.321733 1.56657,0.82968 2.26084,1.523938 l 2.08256,-2.031918 c -0.82973,-0.948258 -1.854,-1.667974 -3.0732,-2.159041 -1.20227,-0.491058 -2.55676,-0.736906 -4.06383,-0.736906 z m 30.89372,0 c -1.3716,0 -2.64119,0.228555 -3.80959,0.685746 -1.1684,0.4572 -2.18479,1.100908 -3.04839,1.930632 -0.8636,0.812791 -1.53255,1.777848 -2.00659,2.89543 -0.47413,1.100658 -0.71107,2.311546 -0.71107,3.632337 0,1.320791 0.23694,2.540056 0.71107,3.657656 0.47404,1.10067 1.14299,2.0657 2.00659,2.89543 0.8636,0.8128 1.87999,1.44811 3.04839,1.90531 1.1684,0.4572 2.4469,0.68575 3.83543,0.68575 1.3716,0 2.63279,-0.22855 3.78426,-0.68575 1.1684,-0.4572 2.18428,-1.09251 3.04788,-1.90531 0.8636,-0.8128 1.53247,-1.77783 2.0066,-2.89543 0.47413,-1.1176 0.71158,-2.336865 0.71158,-3.657656 0,-1.320791 -0.23745,-2.531679 -0.71158,-3.632337 -0.47413,-1.117582 -1.143,-2.082639 -2.0066,-2.89543 -0.8636,-0.829724 -1.87948,-1.473432 -3.04788,-1.930632 -1.15147,-0.457191 -2.42157,-0.685746 -3.8101,-0.685746 z M 45.231864,88.603377 v 17.779793 h 3.302124 v -4.55476 l 2.831869,-2.898014 6.261116,7.452774 H 61.48772 L 53.552804,96.547078 61.0309,88.603377 h -3.708817 l -8.788095,9.123991 v -9.123991 z m 26.428361,0 -8.001062,17.779793 h 3.40341 l 6.198588,-14.48697 3.342432,7.781437 H 72.51237 l -1.104842,2.590543 h 6.308659 l 1.767334,4.11499 h 3.454052 L 74.91119,88.603377 Z m 15.154631,0 v 17.779793 h 3.149679 V 94.75649 l 5.84202,9.59476 h 1.473295 l 5.84409,-9.747722 0.0232,11.779642 h 3.12436 l -0.0253,-17.779793 h -2.71818 l -6.9396,11.781713 -7.055384,-11.781713 z m 31.360364,0 -8.00107,17.779793 h 3.40341 l 6.19911,-14.48697 3.34191,7.781437 h -4.08554 l -1.10484,2.590543 h 6.30298 l 1.76733,4.11499 h 3.45405 l -8.02638,-17.779793 z m 36.38072,0 v 17.779793 h 3.30161 V 88.603377 Z m 18.02474,2.641699 c 0.89747,0 1.72725,0.15202 2.48925,0.45682 0.762,0.3048 1.42248,0.745117 1.98128,1.32085 0.5588,0.558791 0.99073,1.219283 1.29553,1.981274 0.32173,0.745058 0.48265,1.574863 0.48265,2.489254 0,0.914391 -0.16092,1.752577 -0.48265,2.514576 -0.3048,0.74507 -0.73673,1.40554 -1.29553,1.98127 -0.5588,0.5588 -1.21928,0.99073 -1.98128,1.29553 -0.762,0.3048 -1.59178,0.45682 -2.48925,0.45682 -0.89747,0 -1.72674,-0.15202 -2.48874,-0.45682 -0.762,-0.3048 -1.42247,-0.73673 -1.98127,-1.29553 -0.5588,-0.57573 -0.99912,-1.2446 -1.32085,-2.006592 -0.3048,-0.762 -0.45734,-1.591796 -0.45734,-2.489254 0,-0.914391 0.15254,-1.744196 0.45734,-2.489254 0.32173,-0.761991 0.76205,-1.422483 1.32085,-1.981274 0.57573,-0.575733 1.2362,-1.01605 1.98127,-1.32085 0.762,-0.3048 1.59127,-0.45682 2.48874,-0.45682 z" />
    <path
       style="font-size:10.5833px;line-height:1.25;font-family:Montserrat;-inkscape-font-specification:'Montserrat, @wght=600';font-variation-settings:'wght' 600;letter-spacing:0px;word-spacing:0px;fill:#800000;stroke-width:0.264583"
       d="m 172.56941,101.23086 c -0.57855,0 -1.11125,-0.0953 -1.59808,-0.28575 -0.48683,-0.1905 -0.91017,-0.45508 -1.27,-0.79375 -0.35983,-0.345721 -0.63852,-0.747887 -0.83608,-1.206497 -0.19755,-0.465665 -0.29633,-0.973664 -0.29633,-1.523995 0,-0.550331 0.0988,-1.054802 0.29633,-1.513412 0.19756,-0.465665 0.47625,-0.867831 0.83608,-1.206496 0.35983,-0.345721 0.78317,-0.613832 1.27,-0.804331 0.48683,-0.190499 1.016,-0.285749 1.5875,-0.285749 0.57855,0 1.10772,0.09525 1.58749,0.285749 0.48683,0.190499 0.91017,0.45861 1.27,0.804331 0.35983,0.338665 0.63852,0.740831 0.83608,1.206496 0.19755,0.45861 0.29633,0.963081 0.29633,1.513412 0,0.550331 -0.0988,1.05833 -0.29633,1.523995 -0.19756,0.465665 -0.47625,0.867831 -0.83608,1.206497 -0.35983,0.33867 -0.78317,0.60325 -1.27,0.79375 -0.47977,0.1905 -1.00541,0.28575 -1.57691,0.28575 z"
       id="text2"
       aria-label="O" />
  </g>
</svg>
